<?xml version="1.0" encoding="UTF-8" standalone="no"?>
<svg xmlns="http://www.w3.org/2000/svg" xmlns:xlink="http://www.w3.org/1999/xlink" version="1.1" x="0px" y="0px" viewBox="0 0 100 125" enable-background="new 0 0 100 100" xml:space="preserve">
	<path d="M65.055,83.909v2.863c0,4.575-3.722,8.297-8.297,8.297H16.721c-4.575,0-8.297-3.722-8.297-8.297V30.349  c0-4.575,3.722-8.297,8.297-8.297h11.997v2.371H16.721c-3.268,0-5.927,2.658-5.927,5.927v56.422c0,3.268,2.658,5.927,5.927,5.927  h40.038c3.268,0,5.927-2.658,5.927-5.927v-2.863H65.055z M91.577,16.629v56.761c0,4.929-4.01,8.939-8.939,8.939H39.237  c-4.929,0-8.939-4.01-8.939-8.939v-59.42c0-4.929,4.01-8.939,8.939-8.939h39.947L91.577,16.629z M79.179,7.746v4.899  c0,2.738,2.228,4.966,4.966,4.966h5.446V17.49L79.179,7.746z M89.59,73.389V19.597h-5.446c-3.834,0-6.952-3.119-6.952-6.952V7.017  H39.237c-3.834,0-6.952,3.119-6.952,6.952v59.42c0,3.834,3.119,6.952,6.952,6.952h43.401C86.472,80.342,89.59,77.223,89.59,73.389z   M36.739,27.449c0.706,0.687,1.441,1.194,2.204,1.521s1.601,0.497,2.512,0.51v2.3h1.242v-2.339c1.354-0.141,2.435-0.651,3.244-1.53  c0.809-0.879,1.213-1.986,1.213-3.321c0-0.584-0.088-1.117-0.265-1.598c-0.176-0.481-0.432-0.895-0.765-1.242  c-0.494-0.513-1.53-0.982-3.109-1.405c-0.058-0.019-0.099-0.032-0.125-0.038c-0.732-0.193-1.222-0.395-1.473-0.606  c-0.25-0.212-0.375-0.494-0.375-0.847c0-0.347,0.141-0.627,0.424-0.842c0.282-0.215,0.655-0.322,1.117-0.322  c0.456,0,0.911,0.093,1.367,0.279s0.898,0.462,1.328,0.828l1.222-2.743c-0.526-0.353-1.059-0.63-1.598-0.833  s-1.088-0.332-1.646-0.39l-0.01-1.319h-1.242v1.338c-1.437,0.148-2.556,0.616-3.354,1.405c-0.799,0.789-1.198,1.819-1.198,3.09  c0,1.033,0.29,1.846,0.871,2.44c0.581,0.594,1.593,1.089,3.037,1.487c0.95,0.257,1.558,0.509,1.824,0.756  c0.266,0.247,0.399,0.598,0.399,1.054c0,0.417-0.159,0.765-0.476,1.044c-0.318,0.279-0.717,0.419-1.198,0.419  c-0.597,0-1.179-0.159-1.747-0.476s-1.128-0.797-1.68-1.439L36.739,27.449z M83.889,33.695H37.53v2h46.359V33.695z M83.889,39.302  H37.53v2h46.359V39.302z M83.889,61.729H37.53v2h46.359V61.729z M83.889,67.336H37.53v2h46.359V67.336z M83.889,72.942H37.53v2  h46.359V72.942z M83.889,27.769H48.988v2h34.901V27.769z M83.889,22.237H48.988v2h34.901V22.237z M75.064,16.837H48.988v2h26.077  V16.837z M84.889,54.701v-6.559c0-2.12-1.725-3.845-3.845-3.845H40.375c-2.12,0-3.845,1.725-3.845,3.845v6.559  c0,2.12,1.725,3.845,3.845,3.845h40.669C83.164,58.546,84.889,56.821,84.889,54.701z M81.044,46.297  c1.018,0,1.845,0.828,1.845,1.845v6.559c0,1.018-0.827,1.845-1.845,1.845H40.375c-1.017,0-1.845-0.827-1.845-1.845v-6.559  c0-1.017,0.828-1.845,1.845-1.845H81.044z"/><text x="0" y="115" fill="#000000" font-size="5px" font-weight="bold" font-family="'Helvetica Neue', Helvetica, Arial-Unicode, Arial, Sans-serif">Created by Shawn Martin</text><text x="0" y="120" fill="#000000" font-size="5px" font-weight="bold" font-family="'Helvetica Neue', Helvetica, Arial-Unicode, Arial, Sans-serif">from the Noun Project</text></svg>